<svg xmlns="http://www.w3.org/2000/svg" viewBox="0 0 24 24">
    <path d="M 11.048755,23.968239 C 8.6641148,23.773557 6.4234648,22.894601 4.5632048,21.424101 3.3561448,20.469942 2.3590547,19.306535 1.5335547,17.889093 1.2197147,17.350211 0.81013474,16.428687 0.60264474,15.79463 0.03447473,14.05842 -0.12969527,12.295964 0.10060473,10.405 0.30498474,8.7268858 0.95232475,6.9738004 1.9189147,5.4808121 c 0.69,-1.0657772 1.6418901,-2.1150618 2.6311201,-2.9003467 1.51455,-1.2022974 3.38198,-2.04557521 5.3073401,-2.39664006 1.1652701,-0.21247265 2.5588301,-0.24244061 3.7727601,-0.0811272 2.31461,0.30756936 4.58096,1.34855936 6.31757,2.90182056 0.52437,0.4690038 1.06834,1.0445009 1.47385,1.5592621 1.23707,1.5703407 2.02922,3.3184882 2.38553,5.2644619 0.32375,1.7681843 0.2373,3.7183133 -0.23891,5.3889993 -0.36032,1.264123 -0.84083,2.317098 -1.5499,3.396427 -0.97693,1.487058 -2.3979,2.841172 -3.9047,3.721005 -1.9274,1.12542 -3.98918,1.677937 -6.21353,1.665108 -0.27517,-0.0016 -0.65825,-0.01578 -0.85129,-0.03154 z m 1.64167,-2.321248 c 1.24059,-0.09108 2.40442,-0.401633 3.50976,-0.936527 1.95945,-0.948214 3.57667,-2.565913 4.50691,-4.508263 0.68508,-1.430448 0.98912,-2.836571 0.95446,-4.414251 -0.0318,-1.448563 -0.32929,-2.69089 -0.95605,-3.99277 -0.74366,-1.5447216 -1.85535,-2.8295061 -3.29389,-3.8067853 -0.62239,-0.4228254 -1.19285,-0.722316 -1.93603,-1.0164138 -1.47667,-0.5843638 -3.20734,-0.7790381 -4.85706,-0.5463461 -3.5649902,0.5028406 -6.6043602,3.0252123 -7.7739703,6.4516048 -0.22892,0.6706268 -0.36272,1.2689844 -0.46077,2.0604994 -0.0579,0.467677 -0.0584,1.66269 -7.8e-4,2.128428 0.28222,2.282384 1.2477701,4.25963 2.8489901,5.834161 1.40742,1.383957 3.14154,2.274635 5.1261302,2.632885 0.24677,0.04455 0.76762,0.107355 1.00764,0.121513 0.30247,0.01784 1.03452,0.01357 1.32466,-0.0077 z m -1.43787,-1.686709 c -0.75661,-0.07693 -1.4566501,-0.245287 -2.1171801,-0.509183 -0.42966,-0.171655 -0.6997501,-0.304548 -0.7963601,-0.391827 -0.2314,-0.209042 -0.30685,-0.596289 -0.17683,-0.907472 0.0189,-0.04515 0.23075,-0.395287 0.47086,-0.778091 0.2401001,-0.382805 0.7148201,-1.140917 1.0549201,-1.684695 l 0.6183701,-0.988686 0.22969,0.121439 c 0.41197,0.217817 0.85365,0.341353 1.30281,0.364398 0.56892,0.02919 1.18827,-0.115866 1.6722,-0.391635 0.0946,-0.05391 0.17439,-0.09548 0.17732,-0.09239 0.003,0.0031 0.18598,0.296023 0.40679,0.65095 0.2208,0.354926 0.6842,1.098744 1.02979,1.652928 0.34558,0.554182 0.65751,1.063647 0.69317,1.132141 0.0581,0.111466 0.0649,0.147112 0.065,0.339644 10e-5,0.18568 -0.008,0.232143 -0.0594,0.339642 -0.12111,0.253474 -0.27474,0.35669 -0.90286,0.60658 -0.75632,0.300897 -1.43843,0.464472 -2.24172,0.537579 -0.42302,0.0385 -1.04048,0.03793 -1.42654,-0.0013 z m 0.61137,-6.364503 c -0.27218,-0.04498 -0.3571,-0.07072 -0.5648,-0.171207 -0.20491,-0.09914 -0.26247,-0.140518 -0.43122,-0.309998 -0.15558,-0.156242 -0.21365,-0.234302 -0.28868,-0.38805 -0.13551,-0.277689 -0.17434,-0.441423 -0.17182,-0.724571 0.004,-0.46789 0.14058,-0.792944 0.47035,-1.120821 0.34885,-0.34684 0.62776,-0.466675 1.09939,-0.472361 0.31353,-0.0038 0.43852,0.02387 0.72269,0.159876 0.18233,0.08726 0.24321,0.132046 0.4203,0.309157 0.33465,0.334678 0.47725,0.673982 0.47245,1.124149 -0.005,0.467326 -0.1405,0.789251 -0.47193,1.121053 -0.16395,0.164129 -0.24143,0.222643 -0.39627,0.299281 -0.10586,0.0524 -0.2587,0.110039 -0.33965,0.128099 -0.16287,0.03634 -0.43308,0.05989 -0.52081,0.04539 z M 4.6575048,11.97737 c -0.21815,-0.05141 -0.42809,-0.218696 -0.54175,-0.431683 -0.192,-0.359777 0.13692,-1.8375332 0.65443,-2.940162 0.3703,-0.7889937 0.86761,-1.4943703 1.52191,-2.1586713 0.43655,-0.4432257 0.75079,-0.7130204 0.91521,-0.7857449 0.32753,-0.144878 0.66862,-0.085817 0.90589,0.1568566 0.063,0.064468 0.50456,0.7487031 1.1547201,1.7894961 l 1.0526701,1.6851147 -0.12528,0.087757 C 9.9408549,9.558568 9.7585849,9.7213434 9.5979349,9.9138047 c -0.48019,0.5752743 -0.72207,1.1605583 -0.78109,1.8900253 l -0.016,0.198125 -2.0291601,-0.0023 c -1.11603,-0.0013 -2.0674,-0.01129 -2.11415,-0.02231 z M 15.185435,11.789752 c -0.063,-0.959149 -0.60281,-1.9009404 -1.38446,-2.4154906 l -0.1221,-0.080367 1.05926,-1.6927955 c 0.58259,-0.9310378 1.09743,-1.7318861 1.14408,-1.7796614 0.17351,-0.1776839 0.42024,-0.260275 0.68027,-0.2277201 0.18884,0.023639 0.31328,0.088717 0.55839,0.2919959 0.9662,0.8012912 1.73458,1.8361014 2.2558,3.0379629 0.31662,0.7300737 0.55206,1.6817188 0.5571,2.2518158 0.002,0.27311 -0.001,0.300896 -0.0518,0.384929 -0.13396,0.222883 -0.32792,0.366045 -0.56372,0.416077 -0.0837,0.01775 -0.72527,0.02546 -2.11943,0.02546 h -1.99943 z" />
</svg>
